External Loads File
version=1
nRows=62
nColumns=13
Range=5.000000e-03-10 seconds
endheader
time 	forceRightX 	forceRightY 	forceRightZ 	pointRightX 	pointRightY 	pointRightZ 	forceLeftX 	forceLeftY 	forceLeftZ 	pointLeftX 	pointLeftY 	pointLeftZ 		
2.505000 6.707733 130.898349 -0.000000 0.424793 0.452479 -0.195975 26.501689 189.242810 -0.000000 0.191480 0.211141 -0.441529
2.510000 8.914716 143.184075 -0.000000 0.422852 0.453947 -0.195813 28.822014 202.403619 -0.000000 0.191922 0.209579 -0.441595
2.515000 11.250441 157.567981 -0.000000 0.420844 0.455319 -0.195788 31.257528 217.629018 -0.000000 0.192413 0.207947 -0.441635
2.520000 13.599747 173.953172 -0.000000 0.418799 0.456587 -0.195710 33.739338 234.860108 -0.000000 0.192953 0.206314 -0.441601
2.525000 15.790980 192.088022 -0.000000 0.416785 0.457942 -0.195615 36.128961 253.925492 -0.000000 0.193453 0.204653 -0.441690
2.530000 17.706475 211.575732 -0.000000 0.414772 0.459297 -0.195522 38.355564 274.522942 -0.000000 0.193892 0.202993 -0.441571
2.535000 19.169502 231.913676 -0.000000 0.412869 0.460568 -0.195459 40.269138 296.260310 -0.000000 0.194488 0.201337 -0.441578
2.540000 20.058878 252.517153 -0.000000 0.411042 0.461926 -0.195478 41.788454 318.651351 -0.000000 0.195117 0.199790 -0.441594
2.545000 20.324763 272.774756 -0.000000 0.409402 0.463134 -0.195317 42.896164 341.149009 -0.000000 0.195916 0.198228 -0.441408
2.550000 19.990497 292.132053 -0.000000 0.407838 0.464280 -0.195210 43.609800 363.196610 -0.000000 0.196761 0.196804 -0.441430
2.555000 18.975784 310.166650 -0.000000 0.406276 0.465538 -0.195173 43.737253 384.289824 -0.000000 0.197477 0.195333 -0.441652
2.560000 17.571060 326.569224 -0.000000 0.404952 0.466635 -0.195061 43.481754 403.946334 -0.000000 0.198363 0.193928 -0.441667
2.565000 15.670959 341.175478 -0.000000 0.403678 0.467832 -0.195050 42.534149 421.839830 -0.000000 0.199358 0.192555 -0.441642
2.570000 13.709086 353.900495 -0.000000 0.402535 0.469019 -0.194909 41.253215 437.662224 -0.000000 0.200353 0.191296 -0.441679
2.575000 11.784982 364.769762 -0.000000 0.401424 0.470103 -0.194887 39.610273 451.244218 -0.000000 0.201428 0.190203 -0.441650
2.580000 9.960235 373.876394 -0.000000 0.400444 0.471150 -0.194846 37.593883 462.524076 -0.000000 0.202531 0.189081 -0.441650
2.585000 8.202342 381.370609 -0.000000 0.399419 0.472177 -0.194616 35.162046 471.530620 -0.000000 0.203656 0.188095 -0.441595
2.590000 6.812208 387.455039 -0.000000 0.398589 0.473065 -0.194481 32.785124 478.324427 -0.000000 0.204734 0.187214 -0.441642
2.595000 5.437191 392.395148 -0.000000 0.397830 0.473843 -0.194441 30.236263 483.058709 -0.000000 0.205850 0.186368 -0.441588
2.600000 4.123022 396.467349 -0.000000 0.397246 0.474602 -0.194334 27.881831 485.827734 -0.000000 0.206946 0.185719 -0.441608
2.605000 2.726055 399.959053 -0.000000 0.396788 0.475111 -0.194326 25.931747 486.700247 -0.000000 0.207990 0.185135 -0.441660
2.610000 0.954629 403.179266 -0.000000 0.396470 0.475541 -0.194246 24.451596 485.718953 -0.000000 0.209022 0.184682 -0.441722
2.615000 -1.056105 406.460869 -0.000000 0.396324 0.475880 -0.194177 23.997221 482.857399 -0.000000 0.209821 0.184434 -0.441760
2.620000 -3.588638 410.134756 -0.000000 0.396332 0.476014 -0.194163 24.539504 478.086557 -0.000000 0.210562 0.184315 -0.441710
2.625000 -6.376370 414.473096 -0.000000 0.396522 0.475949 -0.194154 26.543521 471.354380 -0.000000 0.210982 0.184338 -0.441786
2.630000 -9.541481 419.620669 -0.000000 0.396904 0.475745 -0.194180 29.749136 462.689990 -0.000000 0.211275 0.184504 -0.441815
2.635000 -13.090759 425.555619 -0.000000 0.397343 0.475480 -0.194183 33.681139 452.246858 -0.000000 0.211490 0.184739 -0.441853
2.640000 -16.863405 432.106478 -0.000000 0.397774 0.475269 -0.194115 37.723458 440.329443 -0.000000 0.211715 0.184977 -0.441892
2.645000 -20.813451 438.997452 -0.000000 0.397999 0.475134 -0.194119 41.027345 427.364945 -0.000000 0.212115 0.185147 -0.441917
2.650000 -24.511187 445.940577 -0.000000 0.398014 0.475059 -0.194114 43.285043 413.771069 -0.000000 0.212646 0.185195 -0.441933
2.655000 -27.785688 452.709076 -0.000000 0.397841 0.475085 -0.194056 44.281528 399.901520 -0.000000 0.213355 0.185142 -0.442061
2.660000 -30.048544 459.270761 -0.000000 0.397688 0.475099 -0.194090 44.605264 385.882614 -0.000000 0.214029 0.185095 -0.442202
2.665000 -31.412900 465.715371 -0.000000 0.397644 0.475136 -0.194182 44.564802 371.724586 -0.000000 0.214667 0.185148 -0.442275
2.670000 -32.304679 472.154182 -0.000000 0.397631 0.475136 -0.194250 44.358300 357.386544 -0.000000 0.215220 0.185151 -0.442352
2.675000 -32.979323 478.637957 -0.000000 0.397673 0.475089 -0.194251 44.254899 342.841863 -0.000000 0.215763 0.185174 -0.442401
2.680000 -33.338151 485.136947 -0.000000 0.397833 0.474989 -0.194267 44.611979 328.103523 -0.000000 0.216195 0.185264 -0.442472
2.685000 -33.734395 491.506266 -0.000000 0.398055 0.474949 -0.194298 45.288310 313.276551 -0.000000 0.216610 0.185337 -0.442537
2.690000 -34.095515 497.585003 -0.000000 0.398241 0.474848 -0.194234 46.291344 298.442865 -0.000000 0.216989 0.185426 -0.442538
2.695000 -34.399348 503.214287 -0.000000 0.398457 0.474769 -0.194145 47.515303 283.673338 -0.000000 0.217378 0.185535 -0.442588
2.700000 -34.625730 508.273554 -0.000000 0.398755 0.474687 -0.194145 48.874126 269.008374 -0.000000 0.217784 0.185591 -0.442637
2.705000 -34.765602 512.684410 -0.000000 0.399099 0.474595 -0.194089 50.348632 254.464910 -0.000000 0.218128 0.185615 -0.442656
2.710000 -34.920984 516.418300 -0.000000 0.399512 0.474525 -0.193946 51.914934 240.032280 -0.000000 0.218497 0.185745 -0.442642
2.715000 -35.113348 519.535757 -0.000000 0.399972 0.474477 -0.193912 53.573942 225.641830 -0.000000 0.218752 0.185874 -0.442672
2.720000 -35.540362 522.165950 -0.000000 0.400447 0.474407 -0.193846 55.207101 211.241970 -0.000000 0.219027 0.186019 -0.442644
2.725000 -36.004089 524.506471 -0.000000 0.400991 0.474314 -0.193775 56.833732 196.791544 -0.000000 0.219238 0.186182 -0.442589
2.730000 -36.624261 526.737841 -0.000000 0.401522 0.474227 -0.193712 58.320858 182.339501 -0.000000 0.219450 0.186420 -0.442579
2.735000 -37.424323 529.035234 -0.000000 0.402078 0.474195 -0.193596 59.576823 167.979244 -0.000000 0.219664 0.186627 -0.442505
2.740000 -38.178164 531.563142 -0.000000 0.402677 0.474124 -0.193478 60.593364 153.808203 -0.000000 0.219861 0.186834 -0.442479
2.745000 -38.933412 534.419755 -0.000000 0.403237 0.474026 -0.193425 61.282885 139.934591 -0.000000 0.220074 0.187058 -0.442424
2.750000 -39.672404 537.665491 -0.000000 0.403770 0.473928 -0.193330 61.621557 126.417256 -0.000000 0.220293 0.187206 -0.442416
2.755000 -40.207533 541.353470 -0.000000 0.404316 0.473827 -0.193274 61.677194 113.271583 -0.000000 0.220523 0.187390 -0.442367
2.760000 -40.495024 545.519599 -0.000000 0.404881 0.473716 -0.193144 61.509577 100.525416 -0.000000 0.220732 0.187591 -0.442333
2.765000 -40.651902 550.178210 -0.000000 0.405442 0.473519 -0.192977 61.153749 88.229898 -0.000000 0.220982 0.187757 -0.442313
2.770000 -40.830865 555.318312 -0.000000 0.405962 0.473520 -0.192948 60.629930 76.430523 -0.000000 0.221188 0.187937 -0.442283
2.775000 -40.745296 560.927641 -0.000000 0.406488 0.473329 -0.192876 59.987596 65.087791 -0.000000 0.221422 0.188124 -0.442285
2.780000 -40.419984 566.943941 -0.000000 0.406963 0.472983 -0.192818 59.201079 54.165191 -0.000000 0.221609 0.188335 -0.442261
2.785000 -40.241412 573.274584 -0.000000 0.407463 0.472800 -0.192710 58.220378 43.647275 -0.000000 0.221829 0.188538 -0.442296
2.790000 -40.254267 579.857455 -0.000000 0.407918 0.472771 -0.192629 57.045064 33.463013 -0.000000 0.222015 0.188765 -0.442304
2.795000 -40.324211 586.631326 -0.000000 0.408366 0.472552 -0.192549 55.683481 23.520001 -0.000000 0.222251 0.188959 -0.442252
2.800000 -40.579325 593.491509 -0.000000 0.408790 0.472295 -0.192484 54.130043 13.767452 -0.000000 0.222490 0.189131 -0.442276
2.805000 -41.013352 600.335918 -0.000000 0.409245 0.472102 -0.192391 52.396102 4.166653 -0.000000 0.222750 0.189305 -0.442314
2.810000 -41.545652 607.085098 -0.000000 0.409676 0.471937 -0.192334 50.513238 -5.284215 -0.000000 0.222987 0.189465 -0.442274
